<svg width="278" height="108" viewBox="0 0 278 108" fill="none" xmlns="http://www.w3.org/2000/svg">
<g filter="url(#filter0_d)">
<rect x="4" width="270" height="100" rx="4" fill="url(#paint0_radial)"/>
<path d="M81.0729 75H45.9369V66.792H50.9769V36.408H45.9369V28.2H67.1769V36.408H60.6249V66.792H72.8649L74.3049 57.72L82.5129 58.44L81.0729 75ZM132.813 51.528C132.813 58.152 130.677 63.84 126.405 68.592C122.181 73.344 116.277 75.72 108.693 75.72C101.061 75.72 95.2053 73.344 91.1253 68.592C87.0453 63.84 85.0053 58.2 85.0053 51.672C85.0053 44.856 87.1653 39.12 91.4853 34.464C95.8053 29.808 101.637 27.48 108.981 27.48C116.469 27.48 122.301 29.856 126.477 34.608C130.701 39.312 132.813 44.952 132.813 51.528ZM122.373 51.816C122.373 46.824 121.221 42.936 118.917 40.152C116.613 37.368 113.277 35.976 108.909 35.976C104.253 35.976 100.845 37.464 98.6853 40.44C96.5253 43.368 95.4453 47.04 95.4453 51.456C95.4453 55.728 96.5013 59.424 98.6133 62.544C100.725 65.664 104.253 67.224 109.197 67.224C113.757 67.224 117.093 65.808 119.205 62.976C121.317 60.096 122.373 56.376 122.373 51.816ZM181.911 57.288H179.607V75H172.119L171.183 70.104C169.743 71.784 167.895 73.152 165.639 74.208C163.431 75.216 160.815 75.72 157.791 75.72C151.215 75.72 145.983 73.44 142.095 68.88C138.255 64.32 136.335 58.68 136.335 51.96C136.335 45.24 138.375 39.48 142.455 34.68C146.535 29.88 152.535 27.48 160.455 27.48C164.247 27.48 167.679 28.032 170.751 29.136C173.871 30.24 176.199 31.56 177.735 33.096L179.031 43.248L171.255 43.968L169.959 38.496C168.711 37.68 167.127 37.056 165.207 36.624C163.335 36.192 161.607 35.976 160.023 35.976C156.183 35.976 152.991 37.272 150.447 39.864C147.951 42.456 146.703 46.44 146.703 51.816C146.703 57 147.879 60.864 150.231 63.408C152.631 65.952 155.727 67.224 159.519 67.224C162.687 67.224 165.207 66.384 167.079 64.704C168.951 63.024 169.887 60.648 169.887 57.576V57.288H160.743V49.152H181.911V57.288ZM233.149 51.528C233.149 58.152 231.013 63.84 226.741 68.592C222.517 73.344 216.613 75.72 209.029 75.72C201.397 75.72 195.541 73.344 191.461 68.592C187.381 63.84 185.341 58.2 185.341 51.672C185.341 44.856 187.501 39.12 191.821 34.464C196.141 29.808 201.973 27.48 209.317 27.48C216.805 27.48 222.637 29.856 226.813 34.608C231.037 39.312 233.149 44.952 233.149 51.528ZM222.709 51.816C222.709 46.824 221.557 42.936 219.253 40.152C216.949 37.368 213.613 35.976 209.245 35.976C204.589 35.976 201.181 37.464 199.021 40.44C196.861 43.368 195.781 47.04 195.781 51.456C195.781 55.728 196.837 59.424 198.949 62.544C201.061 65.664 204.589 67.224 209.533 67.224C214.093 67.224 217.429 65.808 219.541 62.976C221.653 60.096 222.709 56.376 222.709 51.816Z" fill="white"/>
</g>
<defs>
<filter id="filter0_d" x="0" y="0" width="278" height="108" filterUnits="userSpaceOnUse" color-interpolation-filters="sRGB">
<feFlood flood-opacity="0" result="BackgroundImageFix"/>
<feColorMatrix in="SourceAlpha" type="matrix" values="0 0 0 0 0 0 0 0 0 0 0 0 0 0 0 0 0 0 127 0" result="hardAlpha"/>
<feOffset dy="4"/>
<feGaussianBlur stdDeviation="2"/>
<feComposite in2="hardAlpha" operator="out"/>
<feColorMatrix type="matrix" values="0 0 0 0 0 0 0 0 0 0 0 0 0 0 0 0 0 0 0.25 0"/>
<feBlend mode="normal" in2="BackgroundImageFix" result="effect1_dropShadow"/>
<feBlend mode="normal" in="SourceGraphic" in2="effect1_dropShadow" result="shape"/>
</filter>
<radialGradient id="paint0_radial" cx="0" cy="0" r="1" gradientUnits="userSpaceOnUse" gradientTransform="translate(139 50) rotate(145.713) scale(96.8257 185.389)">
<stop stop-color="#5A87DD"/>
<stop offset="0.552083" stop-color="#3E8D9E"/>
<stop offset="1" stop-color="#58AB79"/>
</radialGradient>
</defs>
</svg>
