<svg width="200" height="54" viewBox="0 0 200 54" fill="none" xmlns="http://www.w3.org/2000/svg">
<path d="M46.8 1.592L29.304 53H17.424L0 1.592H11.016L20.664 32.192C20.856 32.72 21.12 33.704 21.456 35.144C21.84 36.536 22.224 38.024 22.608 39.608C22.992 41.144 23.256 42.44 23.4 43.496C23.544 42.44 23.784 41.144 24.12 39.608C24.504 38.024 24.888 36.536 25.272 35.144C25.656 33.704 25.92 32.72 26.064 32.192L35.784 1.592H46.8ZM81.8893 53L78.1453 40.76H59.4253L55.6813 53H43.9453L62.0893 1.376H75.4093L93.6253 53H81.8893ZM71.8093 19.664C71.5693 18.848 71.2573 17.816 70.8733 16.568C70.4893 15.32 70.1053 14.048 69.7213 12.752C69.3373 11.456 69.0253 10.328 68.7853 9.368C68.5453 10.328 68.2093 11.528 67.7773 12.968C67.3933 14.36 67.0093 15.704 66.6253 17C66.2893 18.248 66.0253 19.136 65.8333 19.664L62.1613 31.616H75.5533L71.8093 19.664ZM100.136 53V1.592H111.008V44H131.888V53H100.136ZM160.071 53H136.671V46.808L142.935 43.928V10.664L136.671 7.784V1.592H160.071V7.784L153.807 10.664V43.928L160.071 46.808V53ZM199.144 38.744C199.144 43.304 197.488 46.952 194.176 49.688C190.912 52.376 186.256 53.72 180.208 53.72C174.784 53.72 169.936 52.688 165.664 50.624V40.472C168.112 41.528 170.632 42.512 173.224 43.424C175.864 44.288 178.48 44.72 181.072 44.72C183.76 44.72 185.656 44.216 186.76 43.208C187.912 42.152 188.488 40.832 188.488 39.248C188.488 37.952 188.032 36.848 187.12 35.936C186.256 35.024 185.08 34.184 183.592 33.416C182.104 32.6 180.4 31.736 178.48 30.824C177.28 30.248 175.984 29.576 174.592 28.808C173.2 27.992 171.856 27.008 170.56 25.856C169.312 24.656 168.28 23.216 167.464 21.536C166.648 19.856 166.24 17.84 166.24 15.488C166.24 10.88 167.8 7.304 170.92 4.76C174.04 2.168 178.288 0.871997 183.664 0.871997C186.352 0.871997 188.896 1.184 191.296 1.808C193.744 2.432 196.288 3.32 198.928 4.472L195.4 12.968C193.048 12.008 190.936 11.264 189.064 10.736C187.192 10.208 185.272 9.944 183.304 9.944C181.24 9.944 179.656 10.424 178.552 11.384C177.448 12.344 176.896 13.592 176.896 15.128C176.896 16.952 177.712 18.392 179.344 19.448C180.976 20.504 183.4 21.8 186.616 23.336C189.256 24.584 191.488 25.88 193.312 27.224C195.184 28.568 196.624 30.152 197.632 31.976C198.64 33.8 199.144 36.056 199.144 38.744Z" fill="url(#paint0_radial)"/>
<defs>
<radialGradient id="paint0_radial" cx="0" cy="0" r="1" gradientUnits="userSpaceOnUse" gradientTransform="translate(101 25) rotate(90) scale(63 187.441)">
<stop stop-color="#3F5D96"/>
<stop offset="0.655717" stop-color="#455327" stop-opacity="0"/>
</radialGradient>
</defs>
</svg>
