<svg width="278" height="108" viewBox="0 0 278 108" fill="none" xmlns="http://www.w3.org/2000/svg">
<g filter="url(#filter0_d)">
<rect x="4" width="270" height="100" rx="4" fill="url(#paint0_radial)"/>
<path d="M88.888 36.408H84.64L68.008 75H61.312L44.752 36.408H40.36V28.2H59.728V36.408H55.48L65.056 60.096H65.488L74.848 36.408H70.456V28.2H88.888V36.408ZM132.495 75H113.847V66.792H117.591L115.863 62.04H99.9513L98.0073 66.792H102.399V75H83.9673V66.792H88.2153L101.607 36.408H95.1273V28.2H111.183L128.031 66.792H132.495V75ZM113.271 55.128L108.375 41.952H107.943L102.687 55.128H113.271ZM170.405 75H135.269V66.792H140.309V36.408H135.269V28.2H156.509V36.408H149.957V66.792H162.197L163.637 57.72L171.845 58.44L170.405 75ZM195.145 75H175.417V66.792H180.457V36.408H175.417V28.2H195.145V36.408H190.105V66.792H195.145V75ZM235.794 60.816C235.794 65.664 234.162 69.36 230.898 71.904C227.634 74.448 223.146 75.72 217.434 75.72C214.266 75.72 211.098 75.312 207.93 74.496C204.81 73.68 202.338 72.456 200.514 70.824L201.954 59.232L209.658 59.952L209.586 65.64C211.218 66.504 212.61 67.032 213.762 67.224C214.914 67.368 215.898 67.44 216.714 67.44C219.258 67.44 221.346 67.128 222.978 66.504C224.61 65.832 225.426 64.32 225.426 61.968C225.426 59.376 224.466 57.648 222.546 56.784C220.626 55.872 218.37 55.176 215.778 54.696C213.522 54.312 211.242 53.76 208.938 53.04C206.682 52.272 204.786 51.048 203.25 49.368C201.714 47.64 200.946 45.096 200.946 41.736C200.946 36.504 202.722 32.832 206.274 30.72C209.826 28.56 213.714 27.48 217.938 27.48C221.01 27.48 223.938 27.96 226.722 28.92C229.506 29.832 231.642 31.08 233.13 32.664L233.562 42.816L225.858 43.536L225.21 38.064C224.01 37.248 222.786 36.696 221.538 36.408C220.338 36.12 219.162 35.976 218.01 35.976C216.09 35.976 214.482 36.312 213.186 36.984C211.938 37.656 211.314 38.832 211.314 40.512C211.314 42.48 212.13 43.848 213.762 44.616C215.394 45.384 217.266 46.008 219.378 46.488C221.298 46.872 223.53 47.424 226.074 48.144C228.666 48.816 230.922 50.112 232.842 52.032C234.81 53.904 235.794 56.832 235.794 60.816Z" fill="white"/>
</g>
<defs>
<filter id="filter0_d" x="0" y="0" width="278" height="108" filterUnits="userSpaceOnUse" color-interpolation-filters="sRGB">
<feFlood flood-opacity="0" result="BackgroundImageFix"/>
<feColorMatrix in="SourceAlpha" type="matrix" values="0 0 0 0 0 0 0 0 0 0 0 0 0 0 0 0 0 0 127 0" result="hardAlpha"/>
<feOffset dy="4"/>
<feGaussianBlur stdDeviation="2"/>
<feComposite in2="hardAlpha" operator="out"/>
<feColorMatrix type="matrix" values="0 0 0 0 0 0 0 0 0 0 0 0 0 0 0 0 0 0 0.25 0"/>
<feBlend mode="normal" in2="BackgroundImageFix" result="effect1_dropShadow"/>
<feBlend mode="normal" in="SourceGraphic" in2="effect1_dropShadow" result="shape"/>
</filter>
<radialGradient id="paint0_radial" cx="0" cy="0" r="1" gradientUnits="userSpaceOnUse" gradientTransform="translate(139 50) rotate(145.713) scale(96.8257 185.389)">
<stop stop-color="#5A87DD"/>
<stop offset="0.552083" stop-color="#3E8D9E"/>
<stop offset="1" stop-color="#58AB79"/>
</radialGradient>
</defs>
</svg>
